<svg width="657" height="90" viewBox="0 0 657 90" fill="none" xmlns="http://www.w3.org/2000/svg" className="text-primary fill-current dark:text-secondary dark:fill-current">
<path d="M224.944 77.624V82.136C224.944 82.712 224.656 83 224.08 83H207.376C206.736 83 206.224 82.744 205.84 82.232L163.12 20.024C162.608 19.192 162.352 18.552 162.352 18.104V15.032C162.352 14.456 162.64 14.168 163.216 14.168H180.688C181.456 14.168 182 14.424 182.32 14.936L224.464 76.28C224.784 76.728 224.944 77.176 224.944 77.624ZM177.616 83H163.216C162.64 83 162.352 82.712 162.352 82.136V24.248C162.352 23.864 162.48 23.64 162.736 23.576C162.992 23.448 163.216 23.544 163.408 23.864L177.904 44.984C178.288 45.496 178.48 46.136 178.48 46.904V82.136C178.48 82.712 178.192 83 177.616 83ZM209.68 14.168H224.08C224.656 14.168 224.944 14.456 224.944 15.032V71.672C224.944 72.056 224.816 72.312 224.56 72.44C224.304 72.504 224.08 72.376 223.888 72.056L209.392 50.936C209.008 50.424 208.816 49.784 208.816 49.016V15.032C208.816 14.456 209.104 14.168 209.68 14.168ZM260.673 83H242.529C241.953 83 241.665 82.712 241.665 82.136V15.032C241.665 14.456 241.953 14.168 242.529 14.168H260.673C261.249 14.168 261.536 14.456 261.536 15.032V82.136C261.536 82.712 261.249 83 260.673 83ZM306.643 84.344C306.131 84.344 305.875 84.056 305.875 83.48V71.48C305.875 70.968 306.131 70.648 306.643 70.52C309.011 70.392 310.835 69.848 312.115 68.888C313.459 67.928 314.131 66.648 314.131 65.048C314.131 62.04 311.027 59.544 304.819 57.56C303.923 57.24 302.419 56.76 300.307 56.12C298.195 55.48 296.531 54.968 295.315 54.584C294.163 54.2 292.755 53.656 291.091 52.952C289.427 52.248 287.923 51.48 286.579 50.648C280.563 47 277.555 41.912 277.555 35.384C277.555 29.688 279.859 24.6 284.467 20.12C289.075 15.64 295.283 13.208 303.091 12.824C303.667 12.824 303.955 13.112 303.955 13.688V25.688C303.955 26.264 303.699 26.552 303.187 26.552C300.883 26.68 299.091 27.256 297.811 28.28C296.595 29.24 295.987 30.424 295.987 31.832C295.987 34.456 297.619 36.44 300.883 37.784C302.675 38.552 305.939 39.64 310.675 41.048C315.411 42.456 319.027 43.768 321.523 44.984C329.715 49.016 333.811 54.808 333.811 62.36C333.811 68.632 331.379 73.816 326.515 77.912C321.715 81.944 315.091 84.088 306.643 84.344ZM303.187 70.424C303.699 70.552 303.955 70.84 303.955 71.288V83.48C303.955 84.056 303.667 84.344 303.091 84.344C291.251 83.896 281.811 79.224 274.771 70.328L274.579 69.752C274.579 69.496 274.675 69.272 274.867 69.08L285.619 59.864C286.003 59.544 286.419 59.608 286.867 60.056C291.859 65.88 297.299 69.336 303.187 70.424ZM331.795 23.192C332.115 23.512 332.275 23.768 332.275 23.96C332.275 24.152 332.179 24.376 331.987 24.632L323.347 35.192C323.091 35.448 322.867 35.576 322.675 35.576C322.483 35.576 322.291 35.48 322.099 35.288C317.491 30.552 312.339 27.704 306.643 26.744C306.131 26.616 305.875 26.328 305.875 25.88V13.688C305.875 13.112 306.163 12.824 306.739 12.824C316.339 13.208 324.691 16.664 331.795 23.192ZM391.749 82.136V57.464C391.749 56.888 391.461 56.6 390.885 56.6H370.821C370.245 56.6 369.957 56.312 369.957 55.736V41.912C369.957 41.336 370.245 41.048 370.821 41.048H390.885C391.461 41.048 391.749 40.76 391.749 40.184V15.032C391.749 14.456 392.037 14.168 392.613 14.168H410.757C411.333 14.168 411.621 14.456 411.621 15.032V82.136C411.621 82.712 411.333 83 410.757 83H392.613C392.037 83 391.749 82.712 391.749 82.136ZM367.173 83H349.029C348.453 83 348.165 82.712 348.165 82.136V15.032C348.165 14.456 348.453 14.168 349.029 14.168H367.173C367.749 14.168 368.036 14.456 368.036 15.032V82.136C368.036 82.712 367.749 83 367.173 83ZM456.449 37.4L450.785 54.488C450.465 55.32 450.305 55.864 450.305 56.12C450.305 56.568 450.625 56.792 451.265 56.792H462.593C463.105 56.792 463.393 56.984 463.457 57.368L467.009 68.984C467.201 69.624 467.009 69.944 466.433 69.944H446.561C445.985 69.944 445.601 70.2 445.409 70.712L441.473 82.136C441.281 82.712 440.897 83 440.321 83H425.345C424.705 83 424.385 82.744 424.385 82.232V82.04C424.385 81.976 424.417 81.912 424.481 81.848L448.769 15.512C448.961 15.064 449.249 14.84 449.633 14.84C450.145 14.84 450.433 15.064 450.497 15.512L456.545 35.192C456.673 35.576 456.737 35.896 456.737 36.152C456.737 36.216 456.641 36.632 456.449 37.4ZM473.249 82.424L452.609 15.992C452.417 15.416 452.321 15.064 452.321 14.936C452.321 14.424 452.577 14.168 453.089 14.168H470.177C470.689 14.168 471.041 14.456 471.233 15.032L494.561 81.56C494.689 81.944 494.753 82.168 494.753 82.232C494.753 82.744 494.465 83 493.889 83H474.113C473.601 83 473.313 82.808 473.249 82.424ZM525.3 30.584H505.044C504.468 30.584 504.18 30.296 504.18 29.72V15.032C504.18 14.456 504.468 14.168 505.044 14.168H525.3C525.876 14.168 526.164 14.456 526.164 15.032V29.72C526.164 30.296 525.876 30.584 525.3 30.584ZM570.996 30.584H550.74C550.163 30.584 549.875 30.296 549.875 29.72V15.032C549.875 14.456 550.163 14.168 550.74 14.168H570.996C571.572 14.168 571.86 14.456 571.86 15.032V29.72C571.86 30.296 571.572 30.584 570.996 30.584ZM547.092 83H528.948C528.372 83 528.084 82.712 528.084 82.136V15.032C528.084 14.456 528.372 14.168 528.948 14.168H547.092C547.668 14.168 547.956 14.456 547.956 15.032V82.136C547.956 82.712 547.668 83 547.092 83ZM628.749 82.136V57.464C628.749 56.888 628.461 56.6 627.885 56.6H607.821C607.245 56.6 606.957 56.312 606.957 55.736V41.912C606.957 41.336 607.245 41.048 607.821 41.048H627.885C628.461 41.048 628.749 40.76 628.749 40.184V15.032C628.749 14.456 629.037 14.168 629.613 14.168H647.757C648.333 14.168 648.621 14.456 648.621 15.032V82.136C648.621 82.712 648.333 83 647.757 83H629.613C629.037 83 628.749 82.712 628.749 82.136ZM604.173 83H586.029C585.453 83 585.165 82.712 585.165 82.136V15.032C585.165 14.456 585.453 14.168 586.029 14.168H604.173C604.749 14.168 605.036 14.456 605.036 15.032V82.136C605.036 82.712 604.749 83 604.173 83Z" fill="#2FF093"/>
<path d="M48.07 64.58C48.2167 65.02 48.29 65.5333 48.29 66.12C48.3633 66.7067 48.4 67.2567 48.4 67.77C48.4 69.09 48.2533 70.3367 47.96 71.51C47.6667 72.6833 47.19 73.71 46.53 74.59C45.87 75.47 44.99 76.2033 43.89 76.79C42.8633 77.3033 41.5433 77.56 39.93 77.56C38.39 77.56 36.85 77.23 35.31 76.57C33.8433 75.91 32.01 74.9567 29.81 73.71L6.16 60.07C4.25333 57.5767 3.3 54.2767 3.3 50.17C3.3 47.09 3.74 44.7067 4.62 43.02C5.5 41.3333 6.78333 40.0133 8.47 39.06L38.72 21.46C42.3133 22.4133 44.7333 23.7333 45.98 25.42C47.3 27.0333 47.96 28.7933 47.96 30.7C47.96 33.2667 47.3 35.2833 45.98 36.75C44.7333 38.1433 42.8633 39.4633 40.37 40.71L21.01 50.5L48.07 64.58ZM67.2873 89.66C66.2607 89.8067 65.2707 89.88 64.3173 89.88C63.364 89.9533 62.484 89.99 61.6773 89.99C58.5973 89.99 56.214 89.33 54.5273 88.01C52.914 86.69 52.1073 84.5633 52.1073 81.63C52.1073 79.65 52.4007 77.67 52.9873 75.69C53.574 73.6367 54.0873 71.84 54.5273 70.3L73.8873 0.449995C74.9873 0.303331 76.014 0.229998 76.9673 0.229998C77.9207 0.156666 78.8007 0.12 79.6073 0.12C82.5407 0.12 84.8507 0.743331 86.5373 1.99C88.2973 3.23666 89.1773 5.25333 89.1773 8.04C89.1773 10.1667 88.884 12.1833 88.2973 14.09C87.7107 15.9967 87.1607 17.9033 86.6473 19.81L67.2873 89.66ZM93.2224 34.44C93.0758 34 92.9658 33.4867 92.8924 32.9C92.8924 32.3133 92.8924 31.7633 92.8924 31.25C92.8924 29.93 93.0391 28.6833 93.3324 27.51C93.6258 26.3367 94.1024 25.31 94.7624 24.43C95.4224 23.55 96.2658 22.8533 97.2924 22.34C98.3924 21.7533 99.7491 21.46 101.362 21.46C102.902 21.46 104.406 21.79 105.872 22.45C107.412 23.11 109.282 24.0633 111.482 25.31L135.132 38.95C137.039 41.4433 137.992 44.7433 137.992 48.85C137.992 51.93 137.552 54.3133 136.672 56C135.792 57.6867 134.509 59.0067 132.822 59.96L102.572 77.56C98.9791 76.6067 96.5224 75.3233 95.2024 73.71C93.9558 72.0233 93.3324 70.2267 93.3324 68.32C93.3324 65.7533 93.9558 63.7733 95.2024 62.38C96.5224 60.9133 98.4291 59.5567 100.922 58.31L120.282 48.52L93.2224 34.44Z" fill="#2FF093"/>
<path d="M48.07 64.58L49.0187 64.2638L48.8907 63.8797L48.5316 63.6929L48.07 64.58ZM48.29 66.12H47.29V66.1823L47.2977 66.244L48.29 66.12ZM47.96 71.51L46.9899 71.2675L46.9899 71.2675L47.96 71.51ZM46.53 74.59L45.73 73.99L45.73 73.99L46.53 74.59ZM43.89 76.79L44.3372 77.6844L44.349 77.6785L44.3606 77.6724L43.89 76.79ZM35.31 76.57L34.8996 77.4819L34.9078 77.4856L34.9161 77.4891L35.31 76.57ZM29.81 73.71L29.3104 74.5763L29.317 74.58L29.81 73.71ZM6.16 60.07L5.36564 60.6774L5.48714 60.8363L5.66039 60.9363L6.16 60.07ZM4.62 43.02L5.50659 43.4826L5.50659 43.4826L4.62 43.02ZM8.47 39.06L8.9621 39.9306L8.97289 39.9243L8.47 39.06ZM38.72 21.46L38.9764 20.4934L38.5756 20.3871L38.2171 20.5957L38.72 21.46ZM45.98 25.42L45.1758 26.0144L45.1905 26.0342L45.206 26.0532L45.98 25.42ZM45.98 36.75L45.2367 36.081L45.2348 36.0832L45.98 36.75ZM40.37 40.71L39.9228 39.8156L39.9187 39.8176L40.37 40.71ZM21.01 50.5L20.5587 49.6076L18.8191 50.4873L20.5484 51.3871L21.01 50.5ZM47.1213 64.8962C47.2264 65.2114 47.29 65.6137 47.29 66.12H49.29C49.29 65.453 49.207 64.8286 49.0187 64.2638L47.1213 64.8962ZM47.2977 66.244C47.3667 66.7956 47.4 67.3038 47.4 67.77H49.4C49.4 67.2095 49.36 66.6177 49.2823 65.996L47.2977 66.244ZM47.4 67.77C47.4 69.0156 47.2616 70.1803 46.9899 71.2675L48.9301 71.7525C49.245 70.493 49.4 69.1644 49.4 67.77H47.4ZM46.9899 71.2675C46.7256 72.3244 46.3024 73.2268 45.73 73.99L47.33 75.19C48.0776 74.1932 48.6077 73.0422 48.9301 71.7525L46.9899 71.2675ZM45.73 73.99C45.1688 74.7382 44.4075 75.3807 43.4194 75.9076L44.3606 77.6724C45.5725 77.026 46.5712 76.2018 47.33 75.19L45.73 73.99ZM43.4428 75.8956C42.5996 76.3172 41.4472 76.56 39.93 76.56V78.56C41.6395 78.56 43.1271 78.2895 44.3372 77.6844L43.4428 75.8956ZM39.93 76.56C38.5369 76.56 37.1305 76.2622 35.7039 75.6509L34.9161 77.4891C36.5695 78.1978 38.2431 78.56 39.93 78.56V76.56ZM35.7204 75.6581C34.293 75.0158 32.4894 74.079 30.303 72.84L29.317 74.58C31.5306 75.8344 33.3936 76.8042 34.8996 77.4819L35.7204 75.6581ZM30.3096 72.8437L6.65961 59.2037L5.66039 60.9363L29.3104 74.5763L30.3096 72.8437ZM6.95436 59.4625C5.21712 57.1908 4.3 54.1249 4.3 50.17H2.3C2.3 54.4284 3.28955 57.9626 5.36564 60.6774L6.95436 59.4625ZM4.3 50.17C4.3 47.1623 4.73349 44.9643 5.50659 43.4826L3.73342 42.5574C2.74651 44.449 2.3 47.0177 2.3 50.17H4.3ZM5.50659 43.4826C6.29551 41.9705 7.44026 40.7907 8.96206 39.9306L7.97794 38.1894C6.12641 39.236 4.70449 40.6962 3.73342 42.5574L5.50659 43.4826ZM8.97289 39.9243L39.2229 22.3243L38.2171 20.5957L7.96711 38.1957L8.97289 39.9243ZM38.4636 22.4266C41.9887 23.3618 44.1345 24.6056 45.1758 26.0144L46.7842 24.8256C45.3321 22.8611 42.6379 21.4649 38.9764 20.4934L38.4636 22.4266ZM45.206 26.0532C46.3944 27.5057 46.96 29.0462 46.96 30.7H48.96C48.96 28.5405 48.2056 26.5609 46.754 24.7868L45.206 26.0532ZM46.96 30.7C46.96 33.0958 46.3467 34.8477 45.2367 36.081L46.7233 37.419C48.2533 35.719 48.96 33.4375 48.96 30.7H46.96ZM45.2348 36.0832C44.1029 37.3483 42.3535 38.6002 39.9228 39.8156L40.8172 41.6044C43.3732 40.3264 45.3638 38.9384 46.7252 37.4168L45.2348 36.0832ZM39.9187 39.8176L20.5587 49.6076L21.4613 51.3924L40.8213 41.6024L39.9187 39.8176ZM20.5484 51.3871L47.6084 65.4671L48.5316 63.6929L21.4716 49.6129L20.5484 51.3871ZM67.2873 89.66L67.4288 90.65L68.0763 90.5574L68.251 89.9271L67.2873 89.66ZM64.3173 89.88V88.88H64.2789L64.2406 88.8829L64.3173 89.88ZM54.5273 88.01L53.8941 88.784L53.9025 88.7908L53.911 88.7975L54.5273 88.01ZM52.9873 75.69L53.9462 75.9741L53.9489 75.9647L52.9873 75.69ZM54.5273 70.3L55.4889 70.5747L55.491 70.5671L54.5273 70.3ZM73.8873 0.449995L73.7552 -0.541233L73.1002 -0.453899L72.9237 0.182899L73.8873 0.449995ZM76.9673 0.229998V1.23H77.0057L77.044 1.22705L76.9673 0.229998ZM86.5373 1.99L85.943 2.79417L85.9511 2.80018L85.9593 2.80602L86.5373 1.99ZM88.2973 14.09L89.2531 14.3841L89.2531 14.3841L88.2973 14.09ZM86.6473 19.81L87.611 20.0771L87.613 20.07L86.6473 19.81ZM67.1459 88.6701C66.1621 88.8106 65.2194 88.88 64.3173 88.88V90.88C65.3219 90.88 66.3593 90.8027 67.4288 90.65L67.1459 88.6701ZM64.2406 88.8829C63.3083 88.9547 62.4543 88.99 61.6773 88.99V90.99C62.5138 90.99 63.4197 90.952 64.394 90.8771L64.2406 88.8829ZM61.6773 88.99C58.7257 88.99 56.5919 88.3559 55.1437 87.2225L53.911 88.7975C55.8361 90.3041 58.469 90.99 61.6773 90.99V88.99ZM55.1606 87.236C53.8629 86.1743 53.1073 84.3913 53.1073 81.63H51.1073C51.1073 84.7354 51.9651 87.2057 53.8941 88.784L55.1606 87.236ZM53.1073 81.63C53.1073 79.7503 53.3856 77.8658 53.9461 75.9741L52.0285 75.4059C51.4157 77.4742 51.1073 79.5497 51.1073 81.63H53.1073ZM53.9489 75.9647C54.5355 73.9114 55.0489 72.1147 55.4889 70.5747L53.5658 70.0253C53.1258 71.5653 52.6125 73.3619 52.0258 75.4153L53.9489 75.9647ZM55.491 70.5671L74.851 0.717091L72.9237 0.182899L53.5637 70.0329L55.491 70.5671ZM74.0195 1.44122C75.0826 1.29948 76.0647 1.23 76.9673 1.23V-0.770002C75.9633 -0.770002 74.8921 -0.692817 73.7552 -0.541233L74.0195 1.44122ZM77.044 1.22705C77.9764 1.15534 78.8304 1.12 79.6073 1.12V-0.88C78.7709 -0.88 77.865 -0.842004 76.8907 -0.767056L77.044 1.22705ZM79.6073 1.12C82.4098 1.12 84.485 1.71652 85.943 2.79417L87.1317 1.18582C85.2164 -0.229857 82.6715 -0.88 79.6073 -0.88V1.12ZM85.9593 2.80602C87.3792 3.8118 88.1773 5.47271 88.1773 8.04H90.1773C90.1773 5.03395 89.2154 2.66153 87.1154 1.17397L85.9593 2.80602ZM88.1773 8.04C88.1773 10.0736 87.897 11.9906 87.3416 13.7959L89.2531 14.3841C89.871 12.376 90.1773 10.2598 90.1773 8.04H88.1773ZM87.3416 13.7959C86.7515 15.7138 86.1982 17.6318 85.6817 19.55L87.613 20.07C88.1232 18.1748 88.6699 16.2796 89.2531 14.3841L87.3416 13.7959ZM85.6837 19.5429L66.3237 89.3929L68.251 89.9271L87.611 20.0771L85.6837 19.5429ZM93.2224 34.44L92.2737 34.7562L92.4017 35.1402L92.7608 35.3271L93.2224 34.44ZM92.8924 32.9H91.8924V32.9623L91.9001 33.024L92.8924 32.9ZM93.3324 27.51L92.3623 27.2675L92.3623 27.2675L93.3324 27.51ZM94.7624 24.43L93.9624 23.83L93.9624 23.83L94.7624 24.43ZM97.2924 22.34L97.7396 23.2344L97.7514 23.2285L97.763 23.2223L97.2924 22.34ZM105.872 22.45L105.462 23.3619L105.47 23.3656L105.479 23.3691L105.872 22.45ZM111.482 25.31L111.982 24.4437L111.975 24.44L111.482 25.31ZM135.132 38.95L135.927 38.3425L135.805 38.1837L135.632 38.0837L135.132 38.95ZM132.822 59.96L132.33 59.0894L132.32 59.0957L132.822 59.96ZM102.572 77.56L102.316 78.5266L102.717 78.6329L103.075 78.4243L102.572 77.56ZM95.2024 73.71L94.3982 74.3044L94.4129 74.3242L94.4285 74.3432L95.2024 73.71ZM95.2024 62.38L94.4591 61.711L94.4572 61.7132L95.2024 62.38ZM100.922 58.31L101.37 59.2044L101.374 59.2024L100.922 58.31ZM120.282 48.52L120.734 49.4124L122.473 48.5327L120.744 47.6329L120.282 48.52ZM94.1711 34.1238C94.05 33.7605 93.952 33.3141 93.8847 32.776L91.9001 33.024C91.9795 33.6592 92.1015 34.2395 92.2737 34.7562L94.1711 34.1238ZM93.8924 32.9C93.8924 32.8989 93.8924 32.8977 93.8924 32.8966C93.8924 32.8954 93.8924 32.8943 93.8924 32.8931C93.8924 32.892 93.8924 32.8908 93.8924 32.8897C93.8924 32.8885 93.8924 32.8874 93.8924 32.8863C93.8924 32.8851 93.8924 32.884 93.8924 32.8828C93.8924 32.8817 93.8924 32.8805 93.8924 32.8794C93.8924 32.8782 93.8924 32.8771 93.8924 32.876C93.8924 32.8748 93.8924 32.8737 93.8924 32.8725C93.8924 32.8714 93.8924 32.8702 93.8924 32.8691C93.8924 32.868 93.8924 32.8668 93.8924 32.8657C93.8924 32.8645 93.8924 32.8634 93.8924 32.8622C93.8924 32.8611 93.8924 32.86 93.8924 32.8588C93.8924 32.8577 93.8924 32.8565 93.8924 32.8554C93.8924 32.8542 93.8924 32.8531 93.8924 32.852C93.8924 32.8508 93.8924 32.8497 93.8924 32.8485C93.8924 32.8474 93.8924 32.8462 93.8924 32.8451C93.8924 32.844 93.8924 32.8428 93.8924 32.8417C93.8924 32.8405 93.8924 32.8394 93.8924 32.8383C93.8924 32.8371 93.8924 32.836 93.8924 32.8348C93.8924 32.8337 93.8924 32.8326 93.8924 32.8314C93.8924 32.8303 93.8924 32.8291 93.8924 32.828C93.8924 32.8269 93.8924 32.8257 93.8924 32.8246C93.8924 32.8234 93.8924 32.8223 93.8924 32.8212C93.8924 32.82 93.8924 32.8189 93.8924 32.8177C93.8924 32.8166 93.8924 32.8155 93.8924 32.8143C93.8924 32.8132 93.8924 32.812 93.8924 32.8109C93.8924 32.8098 93.8924 32.8086 93.8924 32.8075C93.8924 32.8064 93.8924 32.8052 93.8924 32.8041C93.8924 32.8029 93.8924 32.8018 93.8924 32.8007C93.8924 32.7995 93.8924 32.7984 93.8924 32.7972C93.8924 32.7961 93.8924 32.795 93.8924 32.7938C93.8924 32.7927 93.8924 32.7916 93.8924 32.7904C93.8924 32.7893 93.8924 32.7882 93.8924 32.787C93.8924 32.7859 93.8924 32.7847 93.8924 32.7836C93.8924 32.7825 93.8924 32.7813 93.8924 32.7802C93.8924 32.7791 93.8924 32.7779 93.8924 32.7768C93.8924 32.7757 93.8924 32.7745 93.8924 32.7734C93.8924 32.7722 93.8924 32.7711 93.8924 32.77C93.8924 32.7688 93.8924 32.7677 93.8924 32.7666C93.8924 32.7654 93.8924 32.7643 93.8924 32.7632C93.8924 32.762 93.8924 32.7609 93.8924 32.7598C93.8924 32.7586 93.8924 32.7575 93.8924 32.7564C93.8924 32.7552 93.8924 32.7541 93.8924 32.753C93.8924 32.7518 93.8924 32.7507 93.8924 32.7496C93.8924 32.7484 93.8924 32.7473 93.8924 32.7462C93.8924 32.745 93.8924 32.7439 93.8924 32.7428C93.8924 32.7416 93.8924 32.7405 93.8924 32.7394C93.8924 32.7382 93.8924 32.7371 93.8924 32.736C93.8924 32.7348 93.8924 32.7337 93.8924 32.7326C93.8924 32.7314 93.8924 32.7303 93.8924 32.7292C93.8924 32.728 93.8924 32.7269 93.8924 32.7258C93.8924 32.7246 93.8924 32.7235 93.8924 32.7224C93.8924 32.7213 93.8924 32.7201 93.8924 32.719C93.8924 32.7179 93.8924 32.7167 93.8924 32.7156C93.8924 32.7145 93.8924 32.7133 93.8924 32.7122C93.8924 32.7111 93.8924 32.7099 93.8924 32.7088C93.8924 32.7077 93.8924 32.7066 93.8924 32.7054C93.8924 32.7043 93.8924 32.7032 93.8924 32.702C93.8924 32.7009 93.8924 32.6998 93.8924 32.6986C93.8924 32.6975 93.8924 32.6964 93.8924 32.6953C93.8924 32.6941 93.8924 32.693 93.8924 32.6919C93.8924 32.6907 93.8924 32.6896 93.8924 32.6885C93.8924 32.6874 93.8924 32.6862 93.8924 32.6851C93.8924 32.684 93.8924 32.6828 93.8924 32.6817C93.8924 32.6806 93.8924 32.6795 93.8924 32.6783C93.8924 32.6772 93.8924 32.6761 93.8924 32.675C93.8924 32.6738 93.8924 32.6727 93.8924 32.6716C93.8924 32.6704 93.8924 32.6693 93.8924 32.6682C93.8924 32.6671 93.8924 32.6659 93.8924 32.6648C93.8924 32.6637 93.8924 32.6626 93.8924 32.6614C93.8924 32.6603 93.8924 32.6592 93.8924 32.6581C93.8924 32.6569 93.8924 32.6558 93.8924 32.6547C93.8924 32.6535 93.8924 32.6524 93.8924 32.6513C93.8924 32.6502 93.8924 32.649 93.8924 32.6479C93.8924 32.6468 93.8924 32.6457 93.8924 32.6445C93.8924 32.6434 93.8924 32.6423 93.8924 32.6412C93.8924 32.64 93.8924 32.6389 93.8924 32.6378C93.8924 32.6367 93.8924 32.6355 93.8924 32.6344C93.8924 32.6333 93.8924 32.6322 93.8924 32.6311C93.8924 32.6299 93.8924 32.6288 93.8924 32.6277C93.8924 32.6266 93.8924 32.6254 93.8924 32.6243C93.8924 32.6232 93.8924 32.6221 93.8924 32.6209C93.8924 32.6198 93.8924 32.6187 93.8924 32.6176C93.8924 32.6165 93.8924 32.6153 93.8924 32.6142C93.8924 32.6131 93.8924 32.612 93.8924 32.6108C93.8924 32.6097 93.8924 32.6086 93.8924 32.6075C93.8924 32.6064 93.8924 32.6052 93.8924 32.6041C93.8924 32.603 93.8924 32.6019 93.8924 32.6007C93.8924 32.5996 93.8924 32.5985 93.8924 32.5974C93.8924 32.5963 93.8924 32.5951 93.8924 32.594C93.8924 32.5929 93.8924 32.5918 93.8924 32.5907C93.8924 32.5895 93.8924 32.5884 93.8924 32.5873C93.8924 32.5862 93.8924 32.5851 93.8924 32.5839C93.8924 32.5828 93.8924 32.5817 93.8924 32.5806C93.8924 32.5795 93.8924 32.5783 93.8924 32.5772C93.8924 32.5761 93.8924 32.575 93.8924 32.5739C93.8924 32.5727 93.8924 32.5716 93.8924 32.5705C93.8924 32.5694 93.8924 32.5683 93.8924 32.5672C93.8924 32.566 93.8924 32.5649 93.8924 32.5638C93.8924 32.5627 93.8924 32.5616 93.8924 32.5604C93.8924 32.5593 93.8924 32.5582 93.8924 32.5571C93.8924 32.556 93.8924 32.5549 93.8924 32.5537C93.8924 32.5526 93.8924 32.5515 93.8924 32.5504C93.8924 32.5493 93.8924 32.5482 93.8924 32.547C93.8924 32.5459 93.8924 32.5448 93.8924 32.5437C93.8924 32.5426 93.8924 32.5415 93.8924 32.5403C93.8924 32.5392 93.8924 32.5381 93.8924 32.537C93.8924 32.5359 93.8924 32.5348 93.8924 32.5336C93.8924 32.5325 93.8924 32.5314 93.8924 32.5303C93.8924 32.5292 93.8924 32.5281 93.8924 32.527C93.8924 32.5258 93.8924 32.5247 93.8924 32.5236C93.8924 32.5225 93.8924 32.5214 93.8924 32.5203C93.8924 32.5191 93.8924 32.518 93.8924 32.5169C93.8924 32.5158 93.8924 32.5147 93.8924 32.5136C93.8924 32.5125 93.8924 32.5113 93.8924 32.5102C93.8924 32.5091 93.8924 32.508 93.8924 32.5069C93.8924 32.5058 93.8924 32.5047 93.8924 32.5036C93.8924 32.5024 93.8924 32.5013 93.8924 32.5002C93.8924 32.4991 93.8924 32.498 93.8924 32.4969C93.8924 32.4958 93.8924 32.4947 93.8924 32.4935C93.8924 32.4924 93.8924 32.4913 93.8924 32.4902C93.8924 32.4891 93.8924 32.488 93.8924 32.4869C93.8924 32.4858 93.8924 32.4846 93.8924 32.4835C93.8924 32.4824 93.8924 32.4813 93.8924 32.4802C93.8924 32.4791 93.8924 32.478 93.8924 32.4769C93.8924 32.4758 93.8924 32.4746 93.8924 32.4735C93.8924 32.4724 93.8924 32.4713 93.8924 32.4702C93.8924 32.4691 93.8924 32.468 93.8924 32.4669C93.8924 32.4658 93.8924 32.4647 93.8924 32.4635C93.8924 32.4624 93.8924 32.4613 93.8924 32.4602C93.8924 32.4591 93.8924 32.458 93.8924 32.4569C93.8924 32.4558 93.8924 32.4547 93.8924 32.4536C93.8924 32.4525 93.8924 32.4513 93.8924 32.4502C93.8924 32.4491 93.8924 32.448 93.8924 32.4469C93.8924 32.4458 93.8924 32.4447 93.8924 32.4436C93.8924 32.4425 93.8924 32.4414 93.8924 32.4403C93.8924 32.4392 93.8924 32.438 93.8924 32.4369C93.8924 32.4358 93.8924 32.4347 93.8924 32.4336C93.8924 32.4325 93.8924 32.4314 93.8924 32.4303C93.8924 32.4292 93.8924 32.4281 93.8924 32.427C93.8924 32.4259 93.8924 32.4248 93.8924 32.4237C93.8924 32.4225 93.8924 32.4214 93.8924 32.4203C93.8924 32.4192 93.8924 32.4181 93.8924 32.417C93.8924 32.4159 93.8924 32.4148 93.8924 32.4137C93.8924 32.4126 93.8924 32.4115 93.8924 32.4104C93.8924 32.4093 93.8924 32.4082 93.8924 32.4071C93.8924 32.406 93.8924 32.4049 93.8924 32.4038C93.8924 32.4026 93.8924 32.4015 93.8924 32.4004C93.8924 32.3993 93.8924 32.3982 93.8924 32.3971C93.8924 32.396 93.8924 32.3949 93.8924 32.3938C93.8924 32.3927 93.8924 32.3916 93.8924 32.3905C93.8924 32.3894 93.8924 32.3883 93.8924 32.3872C93.8924 32.3861 93.8924 32.385 93.8924 32.3839C93.8924 32.3828 93.8924 32.3817 93.8924 32.3806C93.8924 32.3795 93.8924 32.3784 93.8924 32.3773C93.8924 32.3762 93.8924 32.3751 93.8924 32.374C93.8924 32.3729 93.8924 32.3718 93.8924 32.3707C93.8924 32.3696 93.8924 32.3684 93.8924 32.3673C93.8924 32.3662 93.8924 32.3651 93.8924 32.364C93.8924 32.3629 93.8924 32.3618 93.8924 32.3607C93.8924 32.3596 93.8924 32.3585 93.8924 32.3574C93.8924 32.3563 93.8924 32.3552 93.8924 32.3541C93.8924 32.353 93.8924 32.3519 93.8924 32.3508C93.8924 32.3497 93.8924 32.3486 93.8924 32.3475C93.8924 32.3464 93.8924 32.3453 93.8924 32.3442C93.8924 32.3431 93.8924 32.342 93.8924 32.3409C93.8924 32.3398 93.8924 32.3387 93.8924 32.3376C93.8924 32.3365 93.8924 32.3354 93.8924 32.3343C93.8924 32.3332 93.8924 32.3321 93.8924 32.331C93.8924 32.3299 93.8924 32.3288 93.8924 32.3277C93.8924 32.3267 93.8924 32.3256 93.8924 32.3245C93.8924 32.3234 93.8924 32.3223 93.8924 32.3212C93.8924 32.3201 93.8924 32.319 93.8924 32.3179C93.8924 32.3168 93.8924 32.3157 93.8924 32.3146C93.8924 32.3135 93.8924 32.3124 93.8924 32.3113C93.8924 32.3102 93.8924 32.3091 93.8924 32.308C93.8924 32.3069 93.8924 32.3058 93.8924 32.3047C93.8924 32.3036 93.8924 32.3025 93.8924 32.3014C93.8924 32.3003 93.8924 32.2992 93.8924 32.2981C93.8924 32.297 93.8924 32.2959 93.8924 32.2948C93.8924 32.2937 93.8924 32.2927 93.8924 32.2916C93.8924 32.2905 93.8924 32.2894 93.8924 32.2883C93.8924 32.2872 93.8924 32.2861 93.8924 32.285C93.8924 32.2839 93.8924 32.2828 93.8924 32.2817C93.8924 32.2806 93.8924 32.2795 93.8924 32.2784C93.8924 32.2773 93.8924 32.2762 93.8924 32.2751C93.8924 32.274 93.8924 32.273 93.8924 32.2719C93.8924 32.2708 93.8924 32.2697 93.8924 32.2686C93.8924 32.2675 93.8924 32.2664 93.8924 32.2653C93.8924 32.2642 93.8924 32.2631 93.8924 32.262C93.8924 32.2609 93.8924 32.2598 93.8924 32.2587C93.8924 32.2577 93.8924 32.2566 93.8924 32.2555C93.8924 32.2544 93.8924 32.2533 93.8924 32.2522C93.8924 32.2511 93.8924 32.25 93.8924 32.2489C93.8924 32.2478 93.8924 32.2467 93.8924 32.2456C93.8924 32.2446 93.8924 32.2435 93.8924 32.2424C93.8924 32.2413 93.8924 32.2402 93.8924 32.2391C93.8924 32.238 93.8924 32.2369 93.8924 32.2358C93.8924 32.2347 93.8924 32.2336 93.8924 32.2326C93.8924 32.2315 93.8924 32.2304 93.8924 32.2293C93.8924 32.2282 93.8924 32.2271 93.8924 32.226C93.8924 32.2249 93.8924 32.2238 93.8924 32.2227C93.8924 32.2217 93.8924 32.2206 93.8924 32.2195C93.8924 32.2184 93.8924 32.2173 93.8924 32.2162C93.8924 32.2151 93.8924 32.214 93.8924 32.2129C93.8924 32.2119 93.8924 32.2108 93.8924 32.2097C93.8924 32.2086 93.8924 32.2075 93.8924 32.2064C93.8924 32.2053 93.8924 32.2042 93.8924 32.2032C93.8924 32.2021 93.8924 32.201 93.8924 32.1999C93.8924 32.1988 93.8924 32.1977 93.8924 32.1966C93.8924 32.1955 93.8924 32.1945 93.8924 32.1934C93.8924 32.1923 93.8924 32.1912 93.8924 32.1901C93.8924 32.189 93.8924 32.1879 93.8924 32.1868C93.8924 32.1858 93.8924 32.1847 93.8924 32.1836C93.8924 32.1825 93.8924 32.1814 93.8924 32.1803C93.8924 32.1792 93.8924 32.1782 93.8924 32.1771C93.8924 32.176 93.8924 32.1749 93.8924 32.1738C93.8924 32.1727 93.8924 32.1716 93.8924 32.1706C93.8924 32.1695 93.8924 32.1684 93.8924 32.1673C93.8924 32.1662 93.8924 32.1651 93.8924 32.1641C93.8924 32.163 93.8924 32.1619 93.8924 32.1608C93.8924 32.1597 93.8924 32.1586 93.8924 32.1576C93.8924 32.1565 93.8924 32.1554 93.8924 32.1543C93.8924 32.1532 93.8924 32.1521 93.8924 32.1511C93.8924 32.15 93.8924 32.1489 93.8924 32.1478C93.8924 32.1467 93.8924 32.1456 93.8924 32.1446C93.8924 32.1435 93.8924 32.1424 93.8924 32.1413C93.8924 32.1402 93.8924 32.1391 93.8924 32.1381C93.8924 32.137 93.8924 32.1359 93.8924 32.1348C93.8924 32.1337 93.8924 32.1327 93.8924 32.1316C93.8924 32.1305 93.8924 32.1294 93.8924 32.1283C93.8924 32.1272 93.8924 32.1262 93.8924 32.1251C93.8924 32.124 93.8924 32.1229 93.8924 32.1218C93.8924 32.1208 93.8924 32.1197 93.8924 32.1186C93.8924 32.1175 93.8924 32.1164 93.8924 32.1154C93.8924 32.1143 93.8924 32.1132 93.8924 32.1121C93.8924 32.111 93.8924 32.11 93.8924 32.1089C93.8924 32.1078 93.8924 32.1067 93.8924 32.1056C93.8924 32.1046 93.8924 32.1035 93.8924 32.1024C93.8924 32.1013 93.8924 32.1002 93.8924 32.0992C93.8924 32.0981 93.8924 32.097 93.8924 32.0959C93.8924 32.0949 93.8924 32.0938 93.8924 32.0927C93.8924 32.0916 93.8924 32.0905 93.8924 32.0895C93.8924 32.0884 93.8924 32.0873 93.8924 32.0862C93.8924 32.0852 93.8924 32.0841 93.8924 32.083C93.8924 32.0819 93.8924 32.0808 93.8924 32.0798C93.8924 32.0787 93.8924 32.0776 93.8924 32.0765C93.8924 32.0755 93.8924 32.0744 93.8924 32.0733C93.8924 32.0722 93.8924 32.0712 93.8924 32.0701C93.8924 32.069 93.8924 32.0679 93.8924 32.0668C93.8924 32.0658 93.8924 32.0647 93.8924 32.0636C93.8924 32.0625 93.8924 32.0615 93.8924 32.0604C93.8924 32.0593 93.8924 32.0582 93.8924 32.0572C93.8924 32.0561 93.8924 32.055 93.8924 32.0539C93.8924 32.0529 93.8924 32.0518 93.8924 32.0507C93.8924 32.0496 93.8924 32.0486 93.8924 32.0475C93.8924 32.0464 93.8924 32.0453 93.8924 32.0443C93.8924 32.0432 93.8924 32.0421 93.8924 32.0411C93.8924 32.04 93.8924 32.0389 93.8924 32.0378C93.8924 32.0368 93.8924 32.0357 93.8924 32.0346C93.8924 32.0335 93.8924 32.0325 93.8924 32.0314C93.8924 32.0303 93.8924 32.0292 93.8924 32.0282C93.8924 32.0271 93.8924 32.026 93.8924 32.025C93.8924 32.0239 93.8924 32.0228 93.8924 32.0217C93.8924 32.0207 93.8924 32.0196 93.8924 32.0185C93.8924 32.0175 93.8924 32.0164 93.8924 32.0153C93.8924 32.0142 93.8924 32.0132 93.8924 32.0121C93.8924 32.011 93.8924 32.01 93.8924 32.0089C93.8924 32.0078 93.8924 32.0067 93.8924 32.0057C93.8924 32.0046 93.8924 32.0035 93.8924 32.0025C93.8924 32.0014 93.8924 32.0003 93.8924 31.9993C93.8924 31.9982 93.8924 31.9971 93.8924 31.996C93.8924 31.995 93.8924 31.9939 93.8924 31.9928C93.8924 31.9918 93.8924 31.9907 93.8924 31.9896C93.8924 31.9886 93.8924 31.9875 93.8924 31.9864C93.8924 31.9854 93.8924 31.9843 93.8924 31.9832C93.8924 31.9821 93.8924 31.9811 93.8924 31.98C93.8924 31.9789 93.8924 31.9779 93.8924 31.9768C93.8924 31.9757 93.8924 31.9747 93.8924 31.9736C93.8924 31.9725 93.8924 31.9715 93.8924 31.9704C93.8924 31.9693 93.8924 31.9683 93.8924 31.9672C93.8924 31.9661 93.8924 31.9651 93.8924 31.964C93.8924 31.9629 93.8924 31.9619 93.8924 31.9608C93.8924 31.9597 93.8924 31.9587 93.8924 31.9576C93.8924 31.9565 93.8924 31.9555 93.8924 31.9544C93.8924 31.9533 93.8924 31.9523 93.8924 31.9512C93.8924 31.9501 93.8924 31.9491 93.8924 31.948C93.8924 31.9469 93.8924 31.9459 93.8924 31.9448C93.8924 31.9437 93.8924 31.9427 93.8924 31.9416C93.8924 31.9405 93.8924 31.9395 93.8924 31.9384C93.8924 31.9373 93.8924 31.9363 93.8924 31.9352C93.8924 31.9342 93.8924 31.9331 93.8924 31.932C93.8924 31.931 93.8924 31.9299 93.8924 31.9288C93.8924 31.9278 93.8924 31.9267 93.8924 31.9256C93.8924 31.9246 93.8924 31.9235 93.8924 31.9225C93.8924 31.9214 93.8924 31.9203 93.8924 31.9193C93.8924 31.9182 93.8924 31.9171 93.8924 31.9161C93.8924 31.915 93.8924 31.9139 93.8924 31.9129C93.8924 31.9118 93.8924 31.9108 93.8924 31.9097C93.8924 31.9086 93.8924 31.9076 93.8924 31.9065C93.8924 31.9055 93.8924 31.9044 93.8924 31.9033C93.8924 31.9023 93.8924 31.9012 93.8924 31.9001C93.8924 31.8991 93.8924 31.898 93.8924 31.897C93.8924 31.8959 93.8924 31.8948 93.8924 31.8938C93.8924 31.8927 93.8924 31.8917 93.8924 31.8906C93.8924 31.8895 93.8924 31.8885 93.8924 31.8874C93.8924 31.8864 93.8924 31.8853 93.8924 31.8842C93.8924 31.8832 93.8924 31.8821 93.8924 31.8811C93.8924 31.88 93.8924 31.8789 93.8924 31.8779C93.8924 31.8768 93.8924 31.8758 93.8924 31.8747C93.8924 31.8736 93.8924 31.8726 93.8924 31.8715C93.8924 31.8705 93.8924 31.8694 93.8924 31.8683C93.8924 31.8673 93.8924 31.8662 93.8924 31.8652C93.8924 31.8641 93.8924 31.8631 93.8924 31.862C93.8924 31.8609 93.8924 31.8599 93.8924 31.8588C93.8924 31.8578 93.8924 31.8567 93.8924 31.8556C93.8924 31.8546 93.8924 31.8535 93.8924 31.8525C93.8924 31.8514 93.8924 31.8504 93.8924 31.8493C93.8924 31.8482 93.8924 31.8472 93.8924 31.8461C93.8924 31.8451 93.8924 31.844 93.8924 31.843C93.8924 31.8419 93.8924 31.8409 93.8924 31.8398C93.8924 31.8387 93.8924 31.8377 93.8924 31.8366C93.8924 31.8356 93.8924 31.8345 93.8924 31.8335C93.8924 31.8324 93.8924 31.8314 93.8924 31.8303C93.8924 31.8292 93.8924 31.8282 93.8924 31.8271C93.8924 31.8261 93.8924 31.825 93.8924 31.824C93.8924 31.8229 93.8924 31.8219 93.8924 31.8208C93.8924 31.8198 93.8924 31.8187 93.8924 31.8176C93.8924 31.8166 93.8924 31.8155 93.8924 31.8145C93.8924 31.8134 93.8924 31.8124 93.8924 31.8113C93.8924 31.8103 93.8924 31.8092 93.8924 31.8082C93.8924 31.8071 93.8924 31.8061 93.8924 31.805C93.8924 31.8039 93.8924 31.8029 93.8924 31.8018C93.8924 31.8008 93.8924 31.7997 93.8924 31.7987C93.8924 31.7976 93.8924 31.7966 93.8924 31.7955C93.8924 31.7945 93.8924 31.7934 93.8924 31.7924C93.8924 31.7913 93.8924 31.7903 93.8924 31.7892C93.8924 31.7882 93.8924 31.7871 93.8924 31.7861C93.8924 31.785 93.8924 31.784 93.8924 31.7829C93.8924 31.7819 93.8924 31.7808 93.8924 31.7798C93.8924 31.7787 93.8924 31.7777 93.8924 31.7766C93.8924 31.7756 93.8924 31.7745 93.8924 31.7735C93.8924 31.7724 93.8924 31.7714 93.8924 31.7703C93.8924 31.7693 93.8924 31.7682 93.8924 31.7672C93.8924 31.7661 93.8924 31.7651 93.8924 31.764C93.8924 31.763 93.8924 31.7619 93.8924 31.7609C93.8924 31.7598 93.8924 31.7588 93.8924 31.7577C93.8924 31.7567 93.8924 31.7556 93.8924 31.7546C93.8924 31.7535 93.8924 31.7525 93.8924 31.7514C93.8924 31.7504 93.8924 31.7493 93.8924 31.7483C93.8924 31.7472 93.8924 31.7462 93.8924 31.7451C93.8924 31.7441 93.8924 31.743 93.8924 31.742C93.8924 31.7409 93.8924 31.7399 93.8924 31.7388C93.8924 31.7378 93.8924 31.7368 93.8924 31.7357C93.8924 31.7347 93.8924 31.7336 93.8924 31.7326C93.8924 31.7315 93.8924 31.7305 93.8924 31.7294C93.8924 31.7284 93.8924 31.7273 93.8924 31.7263C93.8924 31.7252 93.8924 31.7242 93.8924 31.7232C93.8924 31.7221 93.8924 31.7211 93.8924 31.72C93.8924 31.719 93.8924 31.7179 93.8924 31.7169C93.8924 31.7158 93.8924 31.7148 93.8924 31.7137C93.8924 31.7127 93.8924 31.7117 93.8924 31.7106C93.8924 31.7096 93.8924 31.7085 93.8924 31.7075C93.8924 31.7064 93.8924 31.7054 93.8924 31.7043C93.8924 31.7033 93.8924 31.7023 93.8924 31.7012C93.8924 31.7002 93.8924 31.6991 93.8924 31.6981C93.8924 31.697 93.8924 31.696 93.8924 31.695C93.8924 31.6939 93.8924 31.6929 93.8924 31.6918C93.8924 31.6908 93.8924 31.6897 93.8924 31.6887C93.8924 31.6877 93.8924 31.6866 93.8924 31.6856C93.8924 31.6845 93.8924 31.6835 93.8924 31.6824C93.8924 31.6814 93.8924 31.6804 93.8924 31.6793C93.8924 31.6783 93.8924 31.6772 93.8924 31.6762C93.8924 31.6752 93.8924 31.6741 93.8924 31.6731C93.8924 31.672 93.8924 31.671 93.8924 31.6699C93.8924 31.6689 93.8924 31.6679 93.8924 31.6668C93.8924 31.6658 93.8924 31.6647 93.8924 31.6637C93.8924 31.6627 93.8924 31.6616 93.8924 31.6606C93.8924 31.6595 93.8924 31.6585 93.8924 31.6575C93.8924 31.6564 93.8924 31.6554 93.8924 31.6543C93.8924 31.6533 93.8924 31.6523 93.8924 31.6512C93.8924 31.6502 93.8924 31.6491 93.8924 31.6481C93.8924 31.6471 93.8924 31.646 93.8924 31.645C93.8924 31.644 93.8924 31.6429 93.8924 31.6419C93.8924 31.6408 93.8924 31.6398 93.8924 31.6388C93.8924 31.6377 93.8924 31.6367 93.8924 31.6356C93.8924 31.6346 93.8924 31.6336 93.8924 31.6325C93.8924 31.6315 93.8924 31.6305 93.8924 31.6294C93.8924 31.6284 93.8924 31.6273 93.8924 31.6263C93.8924 31.6253 93.8924 31.6242 93.8924 31.6232C93.8924 31.6222 93.8924 31.6211 93.8924 31.6201C93.8924 31.6191 93.8924 31.618 93.8924 31.617C93.8924 31.6159 93.8924 31.6149 93.8924 31.6139C93.8924 31.6128 93.8924 31.6118 93.8924 31.6108C93.8924 31.6097 93.8924 31.6087 93.8924 31.6077C93.8924 31.6066 93.8924 31.6056 93.8924 31.6046C93.8924 31.6035 93.8924 31.6025 93.8924 31.6014C93.8924 31.6004 93.8924 31.5994 93.8924 31.5983C93.8924 31.5973 93.8924 31.5963 93.8924 31.5952C93.8924 31.5942 93.8924 31.5932 93.8924 31.5921C93.8924 31.5911 93.8924 31.5901 93.8924 31.589C93.8924 31.588 93.8924 31.587 93.8924 31.5859C93.8924 31.5849 93.8924 31.5839 93.8924 31.5828C93.8924 31.5818 93.8924 31.5808 93.8924 31.5797C93.8924 31.5787 93.8924 31.5777 93.8924 31.5766C93.8924 31.5756 93.8924 31.5746 93.8924 31.5735C93.8924 31.5725 93.8924 31.5715 93.8924 31.5704C93.8924 31.5694 93.8924 31.5684 93.8924 31.5673C93.8924 31.5663 93.8924 31.5653 93.8924 31.5643C93.8924 31.5632 93.8924 31.5622 93.8924 31.5612C93.8924 31.5601 93.8924 31.5591 93.8924 31.5581C93.8924 31.557 93.8924 31.556 93.8924 31.555C93.8924 31.5539 93.8924 31.5529 93.8924 31.5519C93.8924 31.5509 93.8924 31.5498 93.8924 31.5488C93.8924 31.5478 93.8924 31.5467 93.8924 31.5457C93.8924 31.5447 93.8924 31.5436 93.8924 31.5426C93.8924 31.5416 93.8924 31.5406 93.8924 31.5395C93.8924 31.5385 93.8924 31.5375 93.8924 31.5364C93.8924 31.5354 93.8924 31.5344 93.8924 31.5334C93.8924 31.5323 93.8924 31.5313 93.8924 31.5303C93.8924 31.5292 93.8924 31.5282 93.8924 31.5272C93.8924 31.5262 93.8924 31.5251 93.8924 31.5241C93.8924 31.5231 93.8924 31.522 93.8924 31.521C93.8924 31.52 93.8924 31.519 93.8924 31.5179C93.8924 31.5169 93.8924 31.5159 93.8924 31.5149C93.8924 31.5138 93.8924 31.5128 93.8924 31.5118C93.8924 31.5107 93.8924 31.5097 93.8924 31.5087C93.8924 31.5077 93.8924 31.5066 93.8924 31.5056C93.8924 31.5046 93.8924 31.5036 93.8924 31.5025C93.8924 31.5015 93.8924 31.5005 93.8924 31.4995C93.8924 31.4984 93.8924 31.4974 93.8924 31.4964C93.8924 31.4954 93.8924 31.4943 93.8924 31.4933C93.8924 31.4923 93.8924 31.4913 93.8924 31.4902C93.8924 31.4892 93.8924 31.4882 93.8924 31.4872C93.8924 31.4861 93.8924 31.4851 93.8924 31.4841C93.8924 31.4831 93.8924 31.482 93.8924 31.481C93.8924 31.48 93.8924 31.479 93.8924 31.4779C93.8924 31.4769 93.8924 31.4759 93.8924 31.4749C93.8924 31.4739 93.8924 31.4728 93.8924 31.4718C93.8924 31.4708 93.8924 31.4698 93.8924 31.4687C93.8924 31.4677 93.8924 31.4667 93.8924 31.4657C93.8924 31.4646 93.8924 31.4636 93.8924 31.4626C93.8924 31.4616 93.8924 31.4606 93.8924 31.4595C93.8924 31.4585 93.8924 31.4575 93.8924 31.4565C93.8924 31.4554 93.8924 31.4544 93.8924 31.4534C93.8924 31.4524 93.8924 31.4514 93.8924 31.4503C93.8924 31.4493 93.8924 31.4483 93.8924 31.4473C93.8924 31.4463 93.8924 31.4452 93.8924 31.4442C93.8924 31.4432 93.8924 31.4422 93.8924 31.4412C93.8924 31.4401 93.8924 31.4391 93.8924 31.4381C93.8924 31.4371 93.8924 31.4361 93.8924 31.435C93.8924 31.434 93.8924 31.433 93.8924 31.432C93.8924 31.431 93.8924 31.4299 93.8924 31.4289C93.8924 31.4279 93.8924 31.4269 93.8924 31.4259C93.8924 31.4248 93.8924 31.4238 93.8924 31.4228C93.8924 31.4218 93.8924 31.4208 93.8924 31.4198C93.8924 31.4187 93.8924 31.4177 93.8924 31.4167C93.8924 31.4157 93.8924 31.4147 93.8924 31.4136C93.8924 31.4126 93.8924 31.4116 93.8924 31.4106C93.8924 31.4096 93.8924 31.4086 93.8924 31.4075C93.8924 31.4065 93.8924 31.4055 93.8924 31.4045C93.8924 31.4035 93.8924 31.4025 93.8924 31.4014C93.8924 31.4004 93.8924 31.3994 93.8924 31.3984C93.8924 31.3974 93.8924 31.3964 93.8924 31.3953C93.8924 31.3943 93.8924 31.3933 93.8924 31.3923C93.8924 31.3913 93.8924 31.3903 93.8924 31.3892C93.8924 31.3882 93.8924 31.3872 93.8924 31.3862C93.8924 31.3852 93.8924 31.3842 93.8924 31.3832C93.8924 31.3821 93.8924 31.3811 93.8924 31.3801C93.8924 31.3791 93.8924 31.3781 93.8924 31.3771C93.8924 31.3761 93.8924 31.375 93.8924 31.374C93.8924 31.373 93.8924 31.372 93.8924 31.371C93.8924 31.37 93.8924 31.369 93.8924 31.3679C93.8924 31.3669 93.8924 31.3659 93.8924 31.3649C93.8924 31.3639 93.8924 31.3629 93.8924 31.3619C93.8924 31.3608 93.8924 31.3598 93.8924 31.3588C93.8924 31.3578 93.8924 31.3568 93.8924 31.3558C93.8924 31.3548 93.8924 31.3538 93.8924 31.3527C93.8924 31.3517 93.8924 31.3507 93.8924 31.3497C93.8924 31.3487 93.8924 31.3477 93.8924 31.3467C93.8924 31.3457 93.8924 31.3447 93.8924 31.3436C93.8924 31.3426 93.8924 31.3416 93.8924 31.3406C93.8924 31.3396 93.8924 31.3386 93.8924 31.3376C93.8924 31.3366 93.8924 31.3356 93.8924 31.3345C93.8924 31.3335 93.8924 31.3325 93.8924 31.3315C93.8924 31.3305 93.8924 31.3295 93.8924 31.3285C93.8924 31.3275 93.8924 31.3265 93.8924 31.3255C93.8924 31.3244 93.8924 31.3234 93.8924 31.3224C93.8924 31.3214 93.8924 31.3204 93.8924 31.3194C93.8924 31.3184 93.8924 31.3174 93.8924 31.3164C93.8924 31.3154 93.8924 31.3144 93.8924 31.3133C93.8924 31.3123 93.8924 31.3113 93.8924 31.3103C93.8924 31.3093 93.8924 31.3083 93.8924 31.3073C93.8924 31.3063 93.8924 31.3053 93.8924 31.3043C93.8924 31.3033 93.8924 31.3023 93.8924 31.3013C93.8924 31.3002 93.8924 31.2992 93.8924 31.2982C93.8924 31.2972 93.8924 31.2962 93.8924 31.2952C93.8924 31.2942 93.8924 31.2932 93.8924 31.2922C93.8924 31.2912 93.8924 31.2902 93.8924 31.2892C93.8924 31.2882 93.8924 31.2872 93.8924 31.2862C93.8924 31.2851 93.8924 31.2841 93.8924 31.2831C93.8924 31.2821 93.8924 31.2811 93.8924 31.2801C93.8924 31.2791 93.8924 31.2781 93.8924 31.2771C93.8924 31.2761 93.8924 31.2751 93.8924 31.2741C93.8924 31.2731 93.8924 31.2721 93.8924 31.2711C93.8924 31.2701 93.8924 31.2691 93.8924 31.2681C93.8924 31.2671 93.8924 31.2661 93.8924 31.265C93.8924 31.264 93.8924 31.263 93.8924 31.262C93.8924 31.261 93.8924 31.26 93.8924 31.259C93.8924 31.258 93.8924 31.257 93.8924 31.256C93.8924 31.255 93.8924 31.254 93.8924 31.253C93.8924 31.252 93.8924 31.251 93.8924 31.25H91.8924C91.8924 31.251 91.8924 31.252 91.8924 31.253C91.8924 31.254 91.8924 31.255 91.8924 31.256C91.8924 31.257 91.8924 31.258 91.8924 31.259C91.8924 31.26 91.8924 31.261 91.8924 31.262C91.8924 31.263 91.8924 31.264 91.8924 31.265C91.8924 31.2661 91.8924 31.2671 91.8924 31.2681C91.8924 31.2691 91.8924 31.2701 91.8924 31.2711C91.8924 31.2721 91.8924 31.2731 91.8924 31.2741C91.8924 31.2751 91.8924 31.2761 91.8924 31.2771C91.8924 31.2781 91.8924 31.2791 91.8924 31.2801C91.8924 31.2811 91.8924 31.2821 91.8924 31.2831C91.8924 31.2841 91.8924 31.2851 91.8924 31.2862C91.8924 31.2872 91.8924 31.2882 91.8924 31.2892C91.8924 31.2902 91.8924 31.2912 91.8924 31.2922C91.8924 31.2932 91.8924 31.2942 91.8924 31.2952C91.8924 31.2962 91.8924 31.2972 91.8924 31.2982C91.8924 31.2992 91.8924 31.3002 91.8924 31.3013C91.8924 31.3023 91.8924 31.3033 91.8924 31.3043C91.8924 31.3053 91.8924 31.3063 91.8924 31.3073C91.8924 31.3083 91.8924 31.3093 91.8924 31.3103C91.8924 31.3113 91.8924 31.3123 91.8924 31.3133C91.8924 31.3144 91.8924 31.3154 91.8924 31.3164C91.8924 31.3174 91.8924 31.3184 91.8924 31.3194C91.8924 31.3204 91.8924 31.3214 91.8924 31.3224C91.8924 31.3234 91.8924 31.3244 91.8924 31.3255C91.8924 31.3265 91.8924 31.3275 91.8924 31.3285C91.8924 31.3295 91.8924 31.3305 91.8924 31.3315C91.8924 31.3325 91.8924 31.3335 91.8924 31.3345C91.8924 31.3356 91.8924 31.3366 91.8924 31.3376C91.8924 31.3386 91.8924 31.3396 91.8924 31.3406C91.8924 31.3416 91.8924 31.3426 91.8924 31.3436C91.8924 31.3447 91.8924 31.3457 91.8924 31.3467C91.8924 31.3477 91.8924 31.3487 91.8924 31.3497C91.8924 31.3507 91.8924 31.3517 91.8924 31.3527C91.8924 31.3538 91.8924 31.3548 91.8924 31.3558C91.8924 31.3568 91.8924 31.3578 91.8924 31.3588C91.8924 31.3598 91.8924 31.3608 91.8924 31.3619C91.8924 31.3629 91.8924 31.3639 91.8924 31.3649C91.8924 31.3659 91.8924 31.3669 91.8924 31.3679C91.8924 31.369 91.8924 31.37 91.8924 31.371C91.8924 31.372 91.8924 31.373 91.8924 31.374C91.8924 31.375 91.8924 31.3761 91.8924 31.3771C91.8924 31.3781 91.8924 31.3791 91.8924 31.3801C91.8924 31.3811 91.8924 31.3821 91.8924 31.3832C91.8924 31.3842 91.8924 31.3852 91.8924 31.3862C91.8924 31.3872 91.8924 31.3882 91.8924 31.3892C91.8924 31.3903 91.8924 31.3913 91.8924 31.3923C91.8924 31.3933 91.8924 31.3943 91.8924 31.3953C91.8924 31.3964 91.8924 31.3974 91.8924 31.3984C91.8924 31.3994 91.8924 31.4004 91.8924 31.4014C91.8924 31.4025 91.8924 31.4035 91.8924 31.4045C91.8924 31.4055 91.8924 31.4065 91.8924 31.4075C91.8924 31.4086 91.8924 31.4096 91.8924 31.4106C91.8924 31.4116 91.8924 31.4126 91.8924 31.4136C91.8924 31.4147 91.8924 31.4157 91.8924 31.4167C91.8924 31.4177 91.8924 31.4187 91.8924 31.4198C91.8924 31.4208 91.8924 31.4218 91.8924 31.4228C91.8924 31.4238 91.8924 31.4248 91.8924 31.4259C91.8924 31.4269 91.8924 31.4279 91.8924 31.4289C91.8924 31.4299 91.8924 31.431 91.8924 31.432C91.8924 31.433 91.8924 31.434 91.8924 31.435C91.8924 31.4361 91.8924 31.4371 91.8924 31.4381C91.8924 31.4391 91.8924 31.4401 91.8924 31.4412C91.8924 31.4422 91.8924 31.4432 91.8924 31.4442C91.8924 31.4452 91.8924 31.4463 91.8924 31.4473C91.8924 31.4483 91.8924 31.4493 91.8924 31.4503C91.8924 31.4514 91.8924 31.4524 91.8924 31.4534C91.8924 31.4544 91.8924 31.4554 91.8924 31.4565C91.8924 31.4575 91.8924 31.4585 91.8924 31.4595C91.8924 31.4606 91.8924 31.4616 91.8924 31.4626C91.8924 31.4636 91.8924 31.4646 91.8924 31.4657C91.8924 31.4667 91.8924 31.4677 91.8924 31.4687C91.8924 31.4698 91.8924 31.4708 91.8924 31.4718C91.8924 31.4728 91.8924 31.4739 91.8924 31.4749C91.8924 31.4759 91.8924 31.4769 91.8924 31.4779C91.8924 31.479 91.8924 31.48 91.8924 31.481C91.8924 31.482 91.8924 31.4831 91.8924 31.4841C91.8924 31.4851 91.8924 31.4861 91.8924 31.4872C91.8924 31.4882 91.8924 31.4892 91.8924 31.4902C91.8924 31.4913 91.8924 31.4923 91.8924 31.4933C91.8924 31.4943 91.8924 31.4954 91.8924 31.4964C91.8924 31.4974 91.8924 31.4984 91.8924 31.4995C91.8924 31.5005 91.8924 31.5015 91.8924 31.5025C91.8924 31.5036 91.8924 31.5046 91.8924 31.5056C91.8924 31.5066 91.8924 31.5077 91.8924 31.5087C91.8924 31.5097 91.8924 31.5107 91.8924 31.5118C91.8924 31.5128 91.8924 31.5138 91.8924 31.5149C91.8924 31.5159 91.8924 31.5169 91.8924 31.5179C91.8924 31.519 91.8924 31.52 91.8924 31.521C91.8924 31.522 91.8924 31.5231 91.8924 31.5241C91.8924 31.5251 91.8924 31.5262 91.8924 31.5272C91.8924 31.5282 91.8924 31.5292 91.8924 31.5303C91.8924 31.5313 91.8924 31.5323 91.8924 31.5334C91.8924 31.5344 91.8924 31.5354 91.8924 31.5364C91.8924 31.5375 91.8924 31.5385 91.8924 31.5395C91.8924 31.5406 91.8924 31.5416 91.8924 31.5426C91.8924 31.5436 91.8924 31.5447 91.8924 31.5457C91.8924 31.5467 91.8924 31.5478 91.8924 31.5488C91.8924 31.5498 91.8924 31.5509 91.8924 31.5519C91.8924 31.5529 91.8924 31.5539 91.8924 31.555C91.8924 31.556 91.8924 31.557 91.8924 31.5581C91.8924 31.5591 91.8924 31.5601 91.8924 31.5612C91.8924 31.5622 91.8924 31.5632 91.8924 31.5643C91.8924 31.5653 91.8924 31.5663 91.8924 31.5673C91.8924 31.5684 91.8924 31.5694 91.8924 31.5704C91.8924 31.5715 91.8924 31.5725 91.8924 31.5735C91.8924 31.5746 91.8924 31.5756 91.8924 31.5766C91.8924 31.5777 91.8924 31.5787 91.8924 31.5797C91.8924 31.5808 91.8924 31.5818 91.8924 31.5828C91.8924 31.5839 91.8924 31.5849 91.8924 31.5859C91.8924 31.587 91.8924 31.588 91.8924 31.589C91.8924 31.5901 91.8924 31.5911 91.8924 31.5921C91.8924 31.5932 91.8924 31.5942 91.8924 31.5952C91.8924 31.5963 91.8924 31.5973 91.8924 31.5983C91.8924 31.5994 91.8924 31.6004 91.8924 31.6014C91.8924 31.6025 91.8924 31.6035 91.8924 31.6046C91.8924 31.6056 91.8924 31.6066 91.8924 31.6077C91.8924 31.6087 91.8924 31.6097 91.8924 31.6108C91.8924 31.6118 91.8924 31.6128 91.8924 31.6139C91.8924 31.6149 91.8924 31.6159 91.8924 31.617C91.8924 31.618 91.8924 31.6191 91.8924 31.6201C91.8924 31.6211 91.8924 31.6222 91.8924 31.6232C91.8924 31.6242 91.8924 31.6253 91.8924 31.6263C91.8924 31.6273 91.8924 31.6284 91.8924 31.6294C91.8924 31.6305 91.8924 31.6315 91.8924 31.6325C91.8924 31.6336 91.8924 31.6346 91.8924 31.6356C91.8924 31.6367 91.8924 31.6377 91.8924 31.6388C91.8924 31.6398 91.8924 31.6408 91.8924 31.6419C91.8924 31.6429 91.8924 31.644 91.8924 31.645C91.8924 31.646 91.8924 31.6471 91.8924 31.6481C91.8924 31.6491 91.8924 31.6502 91.8924 31.6512C91.8924 31.6523 91.8924 31.6533 91.8924 31.6543C91.8924 31.6554 91.8924 31.6564 91.8924 31.6575C91.8924 31.6585 91.8924 31.6595 91.8924 31.6606C91.8924 31.6616 91.8924 31.6627 91.8924 31.6637C91.8924 31.6647 91.8924 31.6658 91.8924 31.6668C91.8924 31.6679 91.8924 31.6689 91.8924 31.6699C91.8924 31.671 91.8924 31.672 91.8924 31.6731C91.8924 31.6741 91.8924 31.6752 91.8924 31.6762C91.8924 31.6772 91.8924 31.6783 91.8924 31.6793C91.8924 31.6804 91.8924 31.6814 91.8924 31.6824C91.8924 31.6835 91.8924 31.6845 91.8924 31.6856C91.8924 31.6866 91.8924 31.6877 91.8924 31.6887C91.8924 31.6897 91.8924 31.6908 91.8924 31.6918C91.8924 31.6929 91.8924 31.6939 91.8924 31.695C91.8924 31.696 91.8924 31.697 91.8924 31.6981C91.8924 31.6991 91.8924 31.7002 91.8924 31.7012C91.8924 31.7023 91.8924 31.7033 91.8924 31.7043C91.8924 31.7054 91.8924 31.7064 91.8924 31.7075C91.8924 31.7085 91.8924 31.7096 91.8924 31.7106C91.8924 31.7117 91.8924 31.7127 91.8924 31.7137C91.8924 31.7148 91.8924 31.7158 91.8924 31.7169C91.8924 31.7179 91.8924 31.719 91.8924 31.72C91.8924 31.7211 91.8924 31.7221 91.8924 31.7232C91.8924 31.7242 91.8924 31.7252 91.8924 31.7263C91.8924 31.7273 91.8924 31.7284 91.8924 31.7294C91.8924 31.7305 91.8924 31.7315 91.8924 31.7326C91.8924 31.7336 91.8924 31.7347 91.8924 31.7357C91.8924 31.7368 91.8924 31.7378 91.8924 31.7388C91.8924 31.7399 91.8924 31.7409 91.8924 31.742C91.8924 31.743 91.8924 31.7441 91.8924 31.7451C91.8924 31.7462 91.8924 31.7472 91.8924 31.7483C91.8924 31.7493 91.8924 31.7504 91.8924 31.7514C91.8924 31.7525 91.8924 31.7535 91.8924 31.7546C91.8924 31.7556 91.8924 31.7567 91.8924 31.7577C91.8924 31.7588 91.8924 31.7598 91.8924 31.7609C91.8924 31.7619 91.8924 31.763 91.8924 31.764C91.8924 31.7651 91.8924 31.7661 91.8924 31.7672C91.8924 31.7682 91.8924 31.7693 91.8924 31.7703C91.8924 31.7714 91.8924 31.7724 91.8924 31.7735C91.8924 31.7745 91.8924 31.7756 91.8924 31.7766C91.8924 31.7777 91.8924 31.7787 91.8924 31.7798C91.8924 31.7808 91.8924 31.7819 91.8924 31.7829C91.8924 31.784 91.8924 31.785 91.8924 31.7861C91.8924 31.7871 91.8924 31.7882 91.8924 31.7892C91.8924 31.7903 91.8924 31.7913 91.8924 31.7924C91.8924 31.7934 91.8924 31.7945 91.8924 31.7955C91.8924 31.7966 91.8924 31.7976 91.8924 31.7987C91.8924 31.7997 91.8924 31.8008 91.8924 31.8018C91.8924 31.8029 91.8924 31.8039 91.8924 31.805C91.8924 31.8061 91.8924 31.8071 91.8924 31.8082C91.8924 31.8092 91.8924 31.8103 91.8924 31.8113C91.8924 31.8124 91.8924 31.8134 91.8924 31.8145C91.8924 31.8155 91.8924 31.8166 91.8924 31.8176C91.8924 31.8187 91.8924 31.8198 91.8924 31.8208C91.8924 31.8219 91.8924 31.8229 91.8924 31.824C91.8924 31.825 91.8924 31.8261 91.8924 31.8271C91.8924 31.8282 91.8924 31.8292 91.8924 31.8303C91.8924 31.8314 91.8924 31.8324 91.8924 31.8335C91.8924 31.8345 91.8924 31.8356 91.8924 31.8366C91.8924 31.8377 91.8924 31.8387 91.8924 31.8398C91.8924 31.8409 91.8924 31.8419 91.8924 31.843C91.8924 31.844 91.8924 31.8451 91.8924 31.8461C91.8924 31.8472 91.8924 31.8482 91.8924 31.8493C91.8924 31.8504 91.8924 31.8514 91.8924 31.8525C91.8924 31.8535 91.8924 31.8546 91.8924 31.8556C91.8924 31.8567 91.8924 31.8578 91.8924 31.8588C91.8924 31.8599 91.8924 31.8609 91.8924 31.862C91.8924 31.8631 91.8924 31.8641 91.8924 31.8652C91.8924 31.8662 91.8924 31.8673 91.8924 31.8683C91.8924 31.8694 91.8924 31.8705 91.8924 31.8715C91.8924 31.8726 91.8924 31.8736 91.8924 31.8747C91.8924 31.8758 91.8924 31.8768 91.8924 31.8779C91.8924 31.8789 91.8924 31.88 91.8924 31.8811C91.8924 31.8821 91.8924 31.8832 91.8924 31.8842C91.8924 31.8853 91.8924 31.8864 91.8924 31.8874C91.8924 31.8885 91.8924 31.8895 91.8924 31.8906C91.8924 31.8917 91.8924 31.8927 91.8924 31.8938C91.8924 31.8948 91.8924 31.8959 91.8924 31.897C91.8924 31.898 91.8924 31.8991 91.8924 31.9001C91.8924 31.9012 91.8924 31.9023 91.8924 31.9033C91.8924 31.9044 91.8924 31.9055 91.8924 31.9065C91.8924 31.9076 91.8924 31.9086 91.8924 31.9097C91.8924 31.9108 91.8924 31.9118 91.8924 31.9129C91.8924 31.9139 91.8924 31.915 91.8924 31.9161C91.8924 31.9171 91.8924 31.9182 91.8924 31.9193C91.8924 31.9203 91.8924 31.9214 91.8924 31.9225C91.8924 31.9235 91.8924 31.9246 91.8924 31.9256C91.8924 31.9267 91.8924 31.9278 91.8924 31.9288C91.8924 31.9299 91.8924 31.931 91.8924 31.932C91.8924 31.9331 91.8924 31.9342 91.8924 31.9352C91.8924 31.9363 91.8924 31.9373 91.8924 31.9384C91.8924 31.9395 91.8924 31.9405 91.8924 31.9416C91.8924 31.9427 91.8924 31.9437 91.8924 31.9448C91.8924 31.9459 91.8924 31.9469 91.8924 31.948C91.8924 31.9491 91.8924 31.9501 91.8924 31.9512C91.8924 31.9523 91.8924 31.9533 91.8924 31.9544C91.8924 31.9555 91.8924 31.9565 91.8924 31.9576C91.8924 31.9587 91.8924 31.9597 91.8924 31.9608C91.8924 31.9619 91.8924 31.9629 91.8924 31.964C91.8924 31.9651 91.8924 31.9661 91.8924 31.9672C91.8924 31.9683 91.8924 31.9693 91.8924 31.9704C91.8924 31.9715 91.8924 31.9725 91.8924 31.9736C91.8924 31.9747 91.8924 31.9757 91.8924 31.9768C91.8924 31.9779 91.8924 31.9789 91.8924 31.98C91.8924 31.9811 91.8924 31.9821 91.8924 31.9832C91.8924 31.9843 91.8924 31.9854 91.8924 31.9864C91.8924 31.9875 91.8924 31.9886 91.8924 31.9896C91.8924 31.9907 91.8924 31.9918 91.8924 31.9928C91.8924 31.9939 91.8924 31.995 91.8924 31.996C91.8924 31.9971 91.8924 31.9982 91.8924 31.9993C91.8924 32.0003 91.8924 32.0014 91.8924 32.0025C91.8924 32.0035 91.8924 32.0046 91.8924 32.0057C91.8924 32.0067 91.8924 32.0078 91.8924 32.0089C91.8924 32.01 91.8924 32.011 91.8924 32.0121C91.8924 32.0132 91.8924 32.0142 91.8924 32.0153C91.8924 32.0164 91.8924 32.0175 91.8924 32.0185C91.8924 32.0196 91.8924 32.0207 91.8924 32.0217C91.8924 32.0228 91.8924 32.0239 91.8924 32.025C91.8924 32.026 91.8924 32.0271 91.8924 32.0282C91.8924 32.0292 91.8924 32.0303 91.8924 32.0314C91.8924 32.0325 91.8924 32.0335 91.8924 32.0346C91.8924 32.0357 91.8924 32.0368 91.8924 32.0378C91.8924 32.0389 91.8924 32.04 91.8924 32.0411C91.8924 32.0421 91.8924 32.0432 91.8924 32.0443C91.8924 32.0453 91.8924 32.0464 91.8924 32.0475C91.8924 32.0486 91.8924 32.0496 91.8924 32.0507C91.8924 32.0518 91.8924 32.0529 91.8924 32.0539C91.8924 32.055 91.8924 32.0561 91.8924 32.0572C91.8924 32.0582 91.8924 32.0593 91.8924 32.0604C91.8924 32.0615 91.8924 32.0625 91.8924 32.0636C91.8924 32.0647 91.8924 32.0658 91.8924 32.0668C91.8924 32.0679 91.8924 32.069 91.8924 32.0701C91.8924 32.0712 91.8924 32.0722 91.8924 32.0733C91.8924 32.0744 91.8924 32.0755 91.8924 32.0765C91.8924 32.0776 91.8924 32.0787 91.8924 32.0798C91.8924 32.0808 91.8924 32.0819 91.8924 32.083C91.8924 32.0841 91.8924 32.0852 91.8924 32.0862C91.8924 32.0873 91.8924 32.0884 91.8924 32.0895C91.8924 32.0905 91.8924 32.0916 91.8924 32.0927C91.8924 32.0938 91.8924 32.0949 91.8924 32.0959C91.8924 32.097 91.8924 32.0981 91.8924 32.0992C91.8924 32.1002 91.8924 32.1013 91.8924 32.1024C91.8924 32.1035 91.8924 32.1046 91.8924 32.1056C91.8924 32.1067 91.8924 32.1078 91.8924 32.1089C91.8924 32.11 91.8924 32.111 91.8924 32.1121C91.8924 32.1132 91.8924 32.1143 91.8924 32.1154C91.8924 32.1164 91.8924 32.1175 91.8924 32.1186C91.8924 32.1197 91.8924 32.1208 91.8924 32.1218C91.8924 32.1229 91.8924 32.124 91.8924 32.1251C91.8924 32.1262 91.8924 32.1272 91.8924 32.1283C91.8924 32.1294 91.8924 32.1305 91.8924 32.1316C91.8924 32.1327 91.8924 32.1337 91.8924 32.1348C91.8924 32.1359 91.8924 32.137 91.8924 32.1381C91.8924 32.1391 91.8924 32.1402 91.8924 32.1413C91.8924 32.1424 91.8924 32.1435 91.8924 32.1446C91.8924 32.1456 91.8924 32.1467 91.8924 32.1478C91.8924 32.1489 91.8924 32.15 91.8924 32.1511C91.8924 32.1521 91.8924 32.1532 91.8924 32.1543C91.8924 32.1554 91.8924 32.1565 91.8924 32.1576C91.8924 32.1586 91.8924 32.1597 91.8924 32.1608C91.8924 32.1619 91.8924 32.163 91.8924 32.1641C91.8924 32.1651 91.8924 32.1662 91.8924 32.1673C91.8924 32.1684 91.8924 32.1695 91.8924 32.1706C91.8924 32.1716 91.8924 32.1727 91.8924 32.1738C91.8924 32.1749 91.8924 32.176 91.8924 32.1771C91.8924 32.1782 91.8924 32.1792 91.8924 32.1803C91.8924 32.1814 91.8924 32.1825 91.8924 32.1836C91.8924 32.1847 91.8924 32.1858 91.8924 32.1868C91.8924 32.1879 91.8924 32.189 91.8924 32.1901C91.8924 32.1912 91.8924 32.1923 91.8924 32.1934C91.8924 32.1945 91.8924 32.1955 91.8924 32.1966C91.8924 32.1977 91.8924 32.1988 91.8924 32.1999C91.8924 32.201 91.8924 32.2021 91.8924 32.2032C91.8924 32.2042 91.8924 32.2053 91.8924 32.2064C91.8924 32.2075 91.8924 32.2086 91.8924 32.2097C91.8924 32.2108 91.8924 32.2119 91.8924 32.2129C91.8924 32.214 91.8924 32.2151 91.8924 32.2162C91.8924 32.2173 91.8924 32.2184 91.8924 32.2195C91.8924 32.2206 91.8924 32.2217 91.8924 32.2227C91.8924 32.2238 91.8924 32.2249 91.8924 32.226C91.8924 32.2271 91.8924 32.2282 91.8924 32.2293C91.8924 32.2304 91.8924 32.2315 91.8924 32.2326C91.8924 32.2336 91.8924 32.2347 91.8924 32.2358C91.8924 32.2369 91.8924 32.238 91.8924 32.2391C91.8924 32.2402 91.8924 32.2413 91.8924 32.2424C91.8924 32.2435 91.8924 32.2446 91.8924 32.2456C91.8924 32.2467 91.8924 32.2478 91.8924 32.2489C91.8924 32.25 91.8924 32.2511 91.8924 32.2522C91.8924 32.2533 91.8924 32.2544 91.8924 32.2555C91.8924 32.2566 91.8924 32.2577 91.8924 32.2587C91.8924 32.2598 91.8924 32.2609 91.8924 32.262C91.8924 32.2631 91.8924 32.2642 91.8924 32.2653C91.8924 32.2664 91.8924 32.2675 91.8924 32.2686C91.8924 32.2697 91.8924 32.2708 91.8924 32.2719C91.8924 32.273 91.8924 32.274 91.8924 32.2751C91.8924 32.2762 91.8924 32.2773 91.8924 32.2784C91.8924 32.2795 91.8924 32.2806 91.8924 32.2817C91.8924 32.2828 91.8924 32.2839 91.8924 32.285C91.8924 32.2861 91.8924 32.2872 91.8924 32.2883C91.8924 32.2894 91.8924 32.2905 91.8924 32.2916C91.8924 32.2927 91.8924 32.2937 91.8924 32.2948C91.8924 32.2959 91.8924 32.297 91.8924 32.2981C91.8924 32.2992 91.8924 32.3003 91.8924 32.3014C91.8924 32.3025 91.8924 32.3036 91.8924 32.3047C91.8924 32.3058 91.8924 32.3069 91.8924 32.308C91.8924 32.3091 91.8924 32.3102 91.8924 32.3113C91.8924 32.3124 91.8924 32.3135 91.8924 32.3146C91.8924 32.3157 91.8924 32.3168 91.8924 32.3179C91.8924 32.319 91.8924 32.3201 91.8924 32.3212C91.8924 32.3223 91.8924 32.3234 91.8924 32.3245C91.8924 32.3256 91.8924 32.3267 91.8924 32.3277C91.8924 32.3288 91.8924 32.3299 91.8924 32.331C91.8924 32.3321 91.8924 32.3332 91.8924 32.3343C91.8924 32.3354 91.8924 32.3365 91.8924 32.3376C91.8924 32.3387 91.8924 32.3398 91.8924 32.3409C91.8924 32.342 91.8924 32.3431 91.8924 32.3442C91.8924 32.3453 91.8924 32.3464 91.8924 32.3475C91.8924 32.3486 91.8924 32.3497 91.8924 32.3508C91.8924 32.3519 91.8924 32.353 91.8924 32.3541C91.8924 32.3552 91.8924 32.3563 91.8924 32.3574C91.8924 32.3585 91.8924 32.3596 91.8924 32.3607C91.8924 32.3618 91.8924 32.3629 91.8924 32.364C91.8924 32.3651 91.8924 32.3662 91.8924 32.3673C91.8924 32.3684 91.8924 32.3696 91.8924 32.3707C91.8924 32.3718 91.8924 32.3729 91.8924 32.374C91.8924 32.3751 91.8924 32.3762 91.8924 32.3773C91.8924 32.3784 91.8924 32.3795 91.8924 32.3806C91.8924 32.3817 91.8924 32.3828 91.8924 32.3839C91.8924 32.385 91.8924 32.3861 91.8924 32.3872C91.8924 32.3883 91.8924 32.3894 91.8924 32.3905C91.8924 32.3916 91.8924 32.3927 91.8924 32.3938C91.8924 32.3949 91.8924 32.396 91.8924 32.3971C91.8924 32.3982 91.8924 32.3993 91.8924 32.4004C91.8924 32.4015 91.8924 32.4026 91.8924 32.4038C91.8924 32.4049 91.8924 32.406 91.8924 32.4071C91.8924 32.4082 91.8924 32.4093 91.8924 32.4104C91.8924 32.4115 91.8924 32.4126 91.8924 32.4137C91.8924 32.4148 91.8924 32.4159 91.8924 32.417C91.8924 32.4181 91.8924 32.4192 91.8924 32.4203C91.8924 32.4214 91.8924 32.4225 91.8924 32.4237C91.8924 32.4248 91.8924 32.4259 91.8924 32.427C91.8924 32.4281 91.8924 32.4292 91.8924 32.4303C91.8924 32.4314 91.8924 32.4325 91.8924 32.4336C91.8924 32.4347 91.8924 32.4358 91.8924 32.4369C91.8924 32.438 91.8924 32.4392 91.8924 32.4403C91.8924 32.4414 91.8924 32.4425 91.8924 32.4436C91.8924 32.4447 91.8924 32.4458 91.8924 32.4469C91.8924 32.448 91.8924 32.4491 91.8924 32.4502C91.8924 32.4513 91.8924 32.4525 91.8924 32.4536C91.8924 32.4547 91.8924 32.4558 91.8924 32.4569C91.8924 32.458 91.8924 32.4591 91.8924 32.4602C91.8924 32.4613 91.8924 32.4624 91.8924 32.4635C91.8924 32.4647 91.8924 32.4658 91.8924 32.4669C91.8924 32.468 91.8924 32.4691 91.8924 32.4702C91.8924 32.4713 91.8924 32.4724 91.8924 32.4735C91.8924 32.4746 91.8924 32.4758 91.8924 32.4769C91.8924 32.478 91.8924 32.4791 91.8924 32.4802C91.8924 32.4813 91.8924 32.4824 91.8924 32.4835C91.8924 32.4846 91.8924 32.4858 91.8924 32.4869C91.8924 32.488 91.8924 32.4891 91.8924 32.4902C91.8924 32.4913 91.8924 32.4924 91.8924 32.4935C91.8924 32.4947 91.8924 32.4958 91.8924 32.4969C91.8924 32.498 91.8924 32.4991 91.8924 32.5002C91.8924 32.5013 91.8924 32.5024 91.8924 32.5036C91.8924 32.5047 91.8924 32.5058 91.8924 32.5069C91.8924 32.508 91.8924 32.5091 91.8924 32.5102C91.8924 32.5113 91.8924 32.5125 91.8924 32.5136C91.8924 32.5147 91.8924 32.5158 91.8924 32.5169C91.8924 32.518 91.8924 32.5191 91.8924 32.5203C91.8924 32.5214 91.8924 32.5225 91.8924 32.5236C91.8924 32.5247 91.8924 32.5258 91.8924 32.527C91.8924 32.5281 91.8924 32.5292 91.8924 32.5303C91.8924 32.5314 91.8924 32.5325 91.8924 32.5336C91.8924 32.5348 91.8924 32.5359 91.8924 32.537C91.8924 32.5381 91.8924 32.5392 91.8924 32.5403C91.8924 32.5415 91.8924 32.5426 91.8924 32.5437C91.8924 32.5448 91.8924 32.5459 91.8924 32.547C91.8924 32.5482 91.8924 32.5493 91.8924 32.5504C91.8924 32.5515 91.8924 32.5526 91.8924 32.5537C91.8924 32.5549 91.8924 32.556 91.8924 32.5571C91.8924 32.5582 91.8924 32.5593 91.8924 32.5604C91.8924 32.5616 91.8924 32.5627 91.8924 32.5638C91.8924 32.5649 91.8924 32.566 91.8924 32.5672C91.8924 32.5683 91.8924 32.5694 91.8924 32.5705C91.8924 32.5716 91.8924 32.5727 91.8924 32.5739C91.8924 32.575 91.8924 32.5761 91.8924 32.5772C91.8924 32.5783 91.8924 32.5795 91.8924 32.5806C91.8924 32.5817 91.8924 32.5828 91.8924 32.5839C91.8924 32.5851 91.8924 32.5862 91.8924 32.5873C91.8924 32.5884 91.8924 32.5895 91.8924 32.5907C91.8924 32.5918 91.8924 32.5929 91.8924 32.594C91.8924 32.5951 91.8924 32.5963 91.8924 32.5974C91.8924 32.5985 91.8924 32.5996 91.8924 32.6007C91.8924 32.6019 91.8924 32.603 91.8924 32.6041C91.8924 32.6052 91.8924 32.6064 91.8924 32.6075C91.8924 32.6086 91.8924 32.6097 91.8924 32.6108C91.8924 32.612 91.8924 32.6131 91.8924 32.6142C91.8924 32.6153 91.8924 32.6165 91.8924 32.6176C91.8924 32.6187 91.8924 32.6198 91.8924 32.6209C91.8924 32.6221 91.8924 32.6232 91.8924 32.6243C91.8924 32.6254 91.8924 32.6266 91.8924 32.6277C91.8924 32.6288 91.8924 32.6299 91.8924 32.6311C91.8924 32.6322 91.8924 32.6333 91.8924 32.6344C91.8924 32.6355 91.8924 32.6367 91.8924 32.6378C91.8924 32.6389 91.8924 32.64 91.8924 32.6412C91.8924 32.6423 91.8924 32.6434 91.8924 32.6445C91.8924 32.6457 91.8924 32.6468 91.8924 32.6479C91.8924 32.649 91.8924 32.6502 91.8924 32.6513C91.8924 32.6524 91.8924 32.6535 91.8924 32.6547C91.8924 32.6558 91.8924 32.6569 91.8924 32.6581C91.8924 32.6592 91.8924 32.6603 91.8924 32.6614C91.8924 32.6626 91.8924 32.6637 91.8924 32.6648C91.8924 32.6659 91.8924 32.6671 91.8924 32.6682C91.8924 32.6693 91.8924 32.6704 91.8924 32.6716C91.8924 32.6727 91.8924 32.6738 91.8924 32.675C91.8924 32.6761 91.8924 32.6772 91.8924 32.6783C91.8924 32.6795 91.8924 32.6806 91.8924 32.6817C91.8924 32.6828 91.8924 32.684 91.8924 32.6851C91.8924 32.6862 91.8924 32.6874 91.8924 32.6885C91.8924 32.6896 91.8924 32.6907 91.8924 32.6919C91.8924 32.693 91.8924 32.6941 91.8924 32.6953C91.8924 32.6964 91.8924 32.6975 91.8924 32.6986C91.8924 32.6998 91.8924 32.7009 91.8924 32.702C91.8924 32.7032 91.8924 32.7043 91.8924 32.7054C91.8924 32.7066 91.8924 32.7077 91.8924 32.7088C91.8924 32.7099 91.8924 32.7111 91.8924 32.7122C91.8924 32.7133 91.8924 32.7145 91.8924 32.7156C91.8924 32.7167 91.8924 32.7179 91.8924 32.719C91.8924 32.7201 91.8924 32.7213 91.8924 32.7224C91.8924 32.7235 91.8924 32.7246 91.8924 32.7258C91.8924 32.7269 91.8924 32.728 91.8924 32.7292C91.8924 32.7303 91.8924 32.7314 91.8924 32.7326C91.8924 32.7337 91.8924 32.7348 91.8924 32.736C91.8924 32.7371 91.8924 32.7382 91.8924 32.7394C91.8924 32.7405 91.8924 32.7416 91.8924 32.7428C91.8924 32.7439 91.8924 32.745 91.8924 32.7462C91.8924 32.7473 91.8924 32.7484 91.8924 32.7496C91.8924 32.7507 91.8924 32.7518 91.8924 32.753C91.8924 32.7541 91.8924 32.7552 91.8924 32.7564C91.8924 32.7575 91.8924 32.7586 91.8924 32.7598C91.8924 32.7609 91.8924 32.762 91.8924 32.7632C91.8924 32.7643 91.8924 32.7654 91.8924 32.7666C91.8924 32.7677 91.8924 32.7688 91.8924 32.77C91.8924 32.7711 91.8924 32.7722 91.8924 32.7734C91.8924 32.7745 91.8924 32.7757 91.8924 32.7768C91.8924 32.7779 91.8924 32.7791 91.8924 32.7802C91.8924 32.7813 91.8924 32.7825 91.8924 32.7836C91.8924 32.7847 91.8924 32.7859 91.8924 32.787C91.8924 32.7882 91.8924 32.7893 91.8924 32.7904C91.8924 32.7916 91.8924 32.7927 91.8924 32.7938C91.8924 32.795 91.8924 32.7961 91.8924 32.7972C91.8924 32.7984 91.8924 32.7995 91.8924 32.8007C91.8924 32.8018 91.8924 32.8029 91.8924 32.8041C91.8924 32.8052 91.8924 32.8064 91.8924 32.8075C91.8924 32.8086 91.8924 32.8098 91.8924 32.8109C91.8924 32.812 91.8924 32.8132 91.8924 32.8143C91.8924 32.8155 91.8924 32.8166 91.8924 32.8177C91.8924 32.8189 91.8924 32.82 91.8924 32.8212C91.8924 32.8223 91.8924 32.8234 91.8924 32.8246C91.8924 32.8257 91.8924 32.8269 91.8924 32.828C91.8924 32.8291 91.8924 32.8303 91.8924 32.8314C91.8924 32.8326 91.8924 32.8337 91.8924 32.8348C91.8924 32.836 91.8924 32.8371 91.8924 32.8383C91.8924 32.8394 91.8924 32.8405 91.8924 32.8417C91.8924 32.8428 91.8924 32.844 91.8924 32.8451C91.8924 32.8462 91.8924 32.8474 91.8924 32.8485C91.8924 32.8497 91.8924 32.8508 91.8924 32.852C91.8924 32.8531 91.8924 32.8542 91.8924 32.8554C91.8924 32.8565 91.8924 32.8577 91.8924 32.8588C91.8924 32.86 91.8924 32.8611 91.8924 32.8622C91.8924 32.8634 91.8924 32.8645 91.8924 32.8657C91.8924 32.8668 91.8924 32.868 91.8924 32.8691C91.8924 32.8702 91.8924 32.8714 91.8924 32.8725C91.8924 32.8737 91.8924 32.8748 91.8924 32.876C91.8924 32.8771 91.8924 32.8782 91.8924 32.8794C91.8924 32.8805 91.8924 32.8817 91.8924 32.8828C91.8924 32.884 91.8924 32.8851 91.8924 32.8863C91.8924 32.8874 91.8924 32.8885 91.8924 32.8897C91.8924 32.8908 91.8924 32.892 91.8924 32.8931C91.8924 32.8943 91.8924 32.8954 91.8924 32.8966C91.8924 32.8977 91.8924 32.8989 91.8924 32.9H93.8924ZM93.8924 31.25C93.8924 30.0044 94.0308 28.8397 94.3026 27.7525L92.3623 27.2675C92.0474 28.527 91.8924 29.8556 91.8924 31.25H93.8924ZM94.3026 27.7525C94.5668 26.6956 94.99 25.7932 95.5624 25.03L93.9624 23.83C93.2148 24.8268 92.6847 25.9778 92.3623 27.2675L94.3026 27.7525ZM95.5624 25.03C96.1252 24.2796 96.8456 23.6814 97.7396 23.2344L96.8452 21.4456C95.6859 22.0252 94.7197 22.8204 93.9624 23.83L95.5624 25.03ZM97.763 23.2223C98.6818 22.7323 99.8664 22.46 101.362 22.46V20.46C99.6318 20.46 98.103 20.7743 96.8218 21.4576L97.763 23.2223ZM101.362 22.46C102.755 22.46 104.119 22.7573 105.462 23.3619L106.283 21.5381C104.693 20.8227 103.05 20.46 101.362 20.46V22.46ZM105.479 23.3691C106.972 24.0093 108.807 24.9434 110.989 26.18L111.975 24.44C109.758 23.1833 107.853 22.2107 106.266 21.5309L105.479 23.3691ZM110.983 26.1762L134.633 39.8163L135.632 38.0837L111.982 24.4437L110.983 26.1762ZM134.338 39.5574C136.075 41.8292 136.992 44.8951 136.992 48.85H138.992C138.992 44.5916 138.003 41.0574 135.927 38.3425L134.338 39.5574ZM136.992 48.85C136.992 51.8577 136.559 54.0557 135.786 55.5374L137.559 56.4626C138.546 54.571 138.992 52.0023 138.992 48.85H136.992ZM135.786 55.5374C134.997 57.0495 133.852 58.2293 132.33 59.0894L133.314 60.8306C135.166 59.784 136.588 58.3238 137.559 56.4626L135.786 55.5374ZM132.32 59.0957L102.07 76.6957L103.075 78.4243L133.325 60.8243L132.32 59.0957ZM102.829 76.5934C99.2987 75.6569 97.094 74.4428 95.9764 73.0768L94.4285 74.3432C95.9508 76.2039 98.6595 77.5565 102.316 78.5266L102.829 76.5934ZM96.0066 73.1156C94.8737 71.5829 94.3324 69.9912 94.3324 68.32H92.3324C92.3324 70.4621 93.0378 72.4638 94.3982 74.3044L96.0066 73.1156ZM94.3324 68.32C94.3324 65.9071 94.9176 64.198 95.9477 63.0468L94.4572 61.7132C92.9939 63.3486 92.3324 65.5995 92.3324 68.32H94.3324ZM95.9457 63.049C97.1551 61.7052 98.9456 60.4165 101.37 59.2044L100.475 57.4156C97.9126 58.6969 95.8897 60.1215 94.4591 61.711L95.9457 63.049ZM101.374 59.2024L120.734 49.4124L119.831 47.6276L100.471 57.4176L101.374 59.2024ZM120.744 47.6329L93.684 33.5529L92.7608 35.3271L119.821 49.4071L120.744 47.6329Z" fill="#2FF093"/>
</svg>
